<svg xmlns="http://www.w3.org/2000/svg" width="40.195" height="26.797" viewBox="0 0 40.195 26.797">
  <path id="Icon_awesome-newspaper" data-name="Icon awesome-newspaper" d="M38.521,3H6.141A1.675,1.675,0,0,0,4.466,4.675v.558H1.675A1.675,1.675,0,0,0,0,6.908V25.889A3.908,3.908,0,0,0,3.908,29.8H36.846a3.35,3.35,0,0,0,3.35-3.35V4.675A1.675,1.675,0,0,0,38.521,3ZM3.908,26.447a.558.558,0,0,1-.558-.558V8.583H4.466V25.889A.558.558,0,0,1,3.908,26.447Zm16.469-1.117H9.77a.837.837,0,0,1-.837-.837v-.558A.837.837,0,0,1,9.77,23.1H20.377a.837.837,0,0,1,.837.837v.558A.837.837,0,0,1,20.377,25.331Zm14.515,0H24.285a.837.837,0,0,1-.837-.837v-.558a.837.837,0,0,1,.837-.837H34.892a.837.837,0,0,1,.837.837v.558A.837.837,0,0,1,34.892,25.331Zm-14.515-6.7H9.77a.837.837,0,0,1-.837-.837v-.558A.837.837,0,0,1,9.77,16.4H20.377a.837.837,0,0,1,.837.837v.558A.837.837,0,0,1,20.377,18.632Zm14.515,0H24.285a.837.837,0,0,1-.837-.837v-.558a.837.837,0,0,1,.837-.837H34.892a.837.837,0,0,1,.837.837v.558A.837.837,0,0,1,34.892,18.632Zm0-6.7H9.77a.837.837,0,0,1-.837-.837V8.3a.837.837,0,0,1,.837-.837H34.892a.837.837,0,0,1,.837.837v2.791A.837.837,0,0,1,34.892,11.932Z" transform="translate(0 -3)" fill="#e85118"/>
</svg>
