<svg xmlns="http://www.w3.org/2000/svg" width="30.05" height="27.518" viewBox="0 0 30.05 27.518">
  <g id="Grupo_29" data-name="Grupo 29" transform="translate(-516.573 568.296)">
    <path id="Caminho_19" data-name="Caminho 19" d="M526.411-556.211c.15-.248.239-.376.308-.513.884-1.758,1.778-3.512,2.637-5.281a2.653,2.653,0,0,0,.243-1.075c.03-1.4.01-2.806.022-4.209.006-.748.206-.853.928-.957,2.041-.293,3.2.742,4.057,2.438a7.576,7.576,0,0,1,.451,5.965c-.207.652-.373,1.317-.585,2.072h1.316c2.7,0,5.4-.023,8.1,0a2.568,2.568,0,0,1,2.578,3.4,8.435,8.435,0,0,1-.982,1.565c.788,1.679.652,2.516-.685,3.8.852,2.137.667,2.818-1.1,4.176a7.69,7.69,0,0,1,.293,1.475,2.544,2.544,0,0,1-2.506,2.556c-4.188.032-8.377.015-12.566,0a1.756,1.756,0,0,1-1.58-.874A.671.671,0,0,0,526.4-542c-.015.165-.036.329-.044.494a.685.685,0,0,1-.763.728c-2.094,0-4.188,0-6.283,0-.554,0-.763-.31-.825-.821-.306-2.493-.629-4.985-.941-7.477q-.473-3.77-.937-7.541c-.116-.946.062-1.145,1.041-1.148q3.77-.012,7.539-.005c1.059,0,1.131.082,1.175,1.141C526.365-556.538,526.383-556.442,526.411-556.211Zm-.031,12.809c.36,0,.651.012.941,0,.549-.027.935.127,1.026.75.068.467.439.567.848.566,4.021,0,8.042,0,12.063-.013a1.29,1.29,0,0,0,1.42-1.206c.046-.73-.382-1.223-1.231-1.386-.42-.081-.724-.263-.683-.735.038-.443.368-.578.757-.592.439-.016.881.01,1.319-.025A1.265,1.265,0,0,0,544-547.18a1.319,1.319,0,0,0-.893-1.365c-.178-.058-.413-.025-.541-.131-.2-.169-.476-.427-.465-.633s.3-.477.524-.584a2.513,2.513,0,0,1,.8-.062,1.291,1.291,0,0,0,1.229-1.205,1.3,1.3,0,0,0-1.006-1.339c-.121-.031-.284-.008-.362-.081-.208-.193-.561-.464-.525-.633.052-.246.366-.483.624-.623.179-.1.452-.013.681-.034a1.3,1.3,0,0,0,1.234-1.27,1.29,1.29,0,0,0-1.177-1.321,4.118,4.118,0,0,0-.564-.017q-4.806,0-9.613,0c-1,0-1.174-.259-.892-1.234.325-1.126.646-2.253.946-3.385a5.947,5.947,0,0,0-1.245-5.18,1.53,1.53,0,0,0-1.816-.573c0,1.364.017,2.721-.011,4.077a2.649,2.649,0,0,1-.246,1.076c-1.028,2.107-2.1,4.195-3.13,6.3-.252.512-.519.954-1.172.938Zm-1.367,1.285v-14.326h-7.064l1.791,14.326Z" transform="translate(0)" fill="#72b5ff"/>
    <path id="Caminho_20" data-name="Caminho 20" d="M560.023-384.792a.973.973,0,0,1-.944.969.97.97,0,0,1-1.008-.966.972.972,0,0,1,.939-.973A.989.989,0,0,1,560.023-384.792Z" transform="translate(-36.28 -159.587)" fill="#72b5ff"/>
  </g>
</svg>
