<svg xmlns="http://www.w3.org/2000/svg" width="47.969" height="40.011" viewBox="0 0 47.969 40.011">
  <g id="graduate" transform="translate(0 -42.468)">
    <path id="Caminho_3211" data-name="Caminho 3211" d="M47.031,50.515,24.452,42.548a1.4,1.4,0,0,0-.935,0L.938,50.515a1.405,1.405,0,0,0,0,2.649l22.579,8.027a1.4,1.4,0,0,0,.941,0l22.579-8.027a1.405,1.405,0,0,0,0-2.649Z" transform="translate(0 0)" fill="#584898"/>
    <path id="Caminho_3212" data-name="Caminho 3212" d="M435.076,209.992V197.734l-2.811,1v11.259a2.822,2.822,0,0,0,0,4.894v6.906a1.405,1.405,0,0,0,2.811,0v-6.906a2.822,2.822,0,0,0,0-4.895Z" transform="translate(-390.482 -140.719)" fill="#584898"/>
    <path id="Caminho_3213" data-name="Caminho 3213" d="M119.549,227.168a4.206,4.206,0,0,1-1.412-.244l-12.693-4.513V228.6c0,1.513,1.578,2.792,4.691,3.8a33.13,33.13,0,0,0,18.828,0c3.113-1.01,4.691-2.29,4.691-3.8v-6.184l-12.693,4.513A4.206,4.206,0,0,1,119.549,227.168Z" transform="translate(-95.565 -163.085)" fill="#584898"/>
  </g>
</svg>
