<svg xmlns="http://www.w3.org/2000/svg" width="32.761" height="43.106" viewBox="0 0 32.761 43.106">
  <g id="Icon_ionic-ios-document" data-name="Icon ionic-ios-document" transform="translate(-4.875 -2.625)">
    <path id="Caminho_3382" data-name="Caminho 3382" d="M15.782,13.288h9.807a.534.534,0,0,0,.539-.539h0a3.189,3.189,0,0,0-1.153-2.468L16.752,3.427a3.461,3.461,0,0,0-2.22-.8h0a.8.8,0,0,0-.8.8V11.24A2.047,2.047,0,0,0,15.782,13.288Z" transform="translate(11.508 0.006)" fill="#d02831"/>
    <path id="Caminho_3383" data-name="Caminho 3383" d="M22.441,11.246V2.625H8.323A3.459,3.459,0,0,0,4.875,6.073V42.283a3.459,3.459,0,0,0,3.448,3.448H34.187a3.459,3.459,0,0,0,3.448-3.448V16.1H27.29A4.857,4.857,0,0,1,22.441,11.246Z" transform="translate(0)" fill="#d02831"/>
  </g>
</svg>
