<svg xmlns="http://www.w3.org/2000/svg" width="39.886" height="37.269" viewBox="0 0 39.886 37.269">
  <path id="Icon_simple-hipchat" data-name="Icon simple-hipchat" d="M32.8,31.149s.171-.121.444-.329a16.251,16.251,0,0,0,6.643-12.828c0-9.5-8.929-17.2-19.938-17.2S0,8.493,0,17.991,8.926,35.2,19.94,35.2a22.87,22.87,0,0,0,4.195-.379l.435-.075a20.757,20.757,0,0,0,10.45,3.307,1.071,1.071,0,0,0,.917-1.835A20.185,20.185,0,0,1,32.8,31.149Zm-2.43-7.522a12.891,12.891,0,0,1-10.394,4.8H19.9a12.908,12.908,0,0,1-10.394-4.8,1.89,1.89,0,0,1-.454-.954A.814.814,0,0,1,9.8,21.8a.089.089,0,0,1,.035,0,1.045,1.045,0,0,1,.545.184A15.185,15.185,0,0,0,19.938,25.4a14.633,14.633,0,0,0,9.573-3.422.766.766,0,0,1,.52-.2.8.8,0,0,1,.8.789,2.2,2.2,0,0,1-.445,1.069H30.37Z" transform="translate(0 -0.787)" fill="#e85118"/>
</svg>
