<svg id="Grupo_1357" data-name="Grupo 1357" xmlns="http://www.w3.org/2000/svg" width="14.228" height="14.203" viewBox="0 0 14.228 14.203">
  <path id="Caminho_3186" data-name="Caminho 3186" d="M31.194,13.077H20.734a1.691,1.691,0,0,0-1.884,1.9V25.421a1.667,1.667,0,0,0,1.827,1.859H31.194a1.69,1.69,0,0,0,1.884-1.871V14.936A1.689,1.689,0,0,0,31.194,13.077Zm-1.149,1.614c1.406,0,1.406,0,1.406,1.413,0,1.369,0,1.369-1.381,1.369-1.4,0-1.4,0-1.4-1.394S28.67,14.691,30.045,14.691ZM25.97,17.422A2.753,2.753,0,1,1,23.2,20.153,2.816,2.816,0,0,1,25.97,17.422Zm5.481,7.4c-.013.666-.182.848-.841.848h-9.3c-.647,0-.835-.182-.835-.848,0-1.714.006-3.46-.025-5.186,0-.49.138-.6.59-.584.653.057.666.025.59.666a4.353,4.353,0,0,0,8.508,1.7,4.332,4.332,0,0,0,.1-2.041c-.05-.251.013-.3.232-.3.979-.075.979-.088.979.929Z" transform="translate(-18.85 -13.077)" fill="#5a90ff" fill-rule="evenodd"/>
</svg>
