<svg id="Grupo_1355" data-name="Grupo 1355" xmlns="http://www.w3.org/2000/svg" width="16.766" height="13.733" viewBox="0 0 16.766 13.733">
  <path id="Caminho_3184" data-name="Caminho 3184" d="M13.648,25.351a7.479,7.479,0,0,0,3.61-.615,6.372,6.372,0,0,0,1.444-.873,3.441,3.441,0,0,1-3.146-2.223c-.075-.182-.075-.182.132-.17a2.73,2.73,0,0,0,1.268-.082,3.562,3.562,0,0,1-.816-.308A3.485,3.485,0,0,1,14.27,18.13c-.013-.157.031-.17.17-.107a3.4,3.4,0,0,0,1.356.37c-.22-.195-.408-.358-.584-.527a3.552,3.552,0,0,1-.546-3.918c.088-.176.119-.176.239-.038a9.769,9.769,0,0,0,6.034,3.365c.245.05.515.05.766.107.17.025.188-.057.163-.188a3.462,3.462,0,0,1,5.789-3.114.382.382,0,0,0,.383.094,6.439,6.439,0,0,0,1.821-.716.343.343,0,0,0,.151-.094,3.408,3.408,0,0,1-1.457,1.915,7.224,7.224,0,0,0,1.859-.483c.013.075-.05.126-.082.195a7.053,7.053,0,0,1-1.438,1.463.3.3,0,0,0-.126.276,10.046,10.046,0,0,1-2.386,6.756,9.334,9.334,0,0,1-5.776,3.24,9.839,9.839,0,0,1-6.882-1.337Z" transform="translate(-13.648 -13.127)" fill="#5a90ff" fill-rule="evenodd"/>
</svg>
