<svg id="Grupo_1353" data-name="Grupo 1353" xmlns="http://www.w3.org/2000/svg" width="16.035" height="16.12" viewBox="0 0 16.035 16.12">
  <path id="Caminho_3181" data-name="Caminho 3181" d="M24.527,19.087a8.009,8.009,0,0,0-7.8-6.178,11.309,11.309,0,0,0-1.532.157A7.987,7.987,0,0,0,9.715,24.719a.521.521,0,0,1,.069.4c-.37,1.231-.716,2.486-1.049,3.723-.05.213-.05.213.151.163,1.3-.358,2.581-.691,3.88-1.011a.338.338,0,0,1,.283.019,8,8,0,0,0,11.478-8.922Zm-6.681,8.382a3.912,3.912,0,0,1-.923.075,6.953,6.953,0,0,1-3.61-.923.411.411,0,0,0-.408-.063c-.722.17-1.425.37-2.141.553-.151.044-.163.013-.132-.132.188-.659.37-1.331.578-2.022a.5.5,0,0,0-.082-.471,6.615,6.615,0,0,1,.232-7.459,6.331,6.331,0,0,1,6.769-2.606,6.266,6.266,0,0,1,5.08,5.048A6.6,6.6,0,0,1,17.846,27.469Z" transform="translate(-8.708 -12.909)" fill="#5a90ff" fill-rule="evenodd"/>
  <path id="Caminho_3182" data-name="Caminho 3182" d="M15.475,21.121a2.083,2.083,0,0,1-.829-.107,8.111,8.111,0,0,1-4.326-3.177,4.524,4.524,0,0,1-.929-1.89,2.17,2.17,0,0,1,.716-2.135,1.2,1.2,0,0,1,1.067-.157.816.816,0,0,1,.182.207c.226.571.465,1.1.7,1.639a.455.455,0,0,1-.031.339,3.4,3.4,0,0,1-.5.666.292.292,0,0,0-.044.433,5.32,5.32,0,0,0,2.731,2.348.311.311,0,0,0,.408-.094c.207-.239.408-.5.6-.753a.337.337,0,0,1,.446-.1c.4.17.779.352,1.155.527.1.057.176.088.27.132.4.195.4.22.345.647-.05.835-.691,1.256-1.425,1.463A1.282,1.282,0,0,1,15.475,21.121Z" transform="translate(-5.37 -9.311)" fill="#5a90ff" fill-rule="evenodd"/>
</svg>
